<?xml version="1.0" encoding="UTF-8"?>

<!--
  - Copyright (c) 2024 StarHidden
  -
  -    Licensed under the Apache License, Version 2.0 (the "License");
  -    you may not use this file except in compliance with the License.
  -    You may obtain a copy of the License at
  -
  -        http://www.apache.org/licenses/LICENSE-2.0
  -
  -    Unless required by applicable law or agreed to in writing, software
  -    distributed under the License is distributed on an "AS IS" BASIS,
  -    WITHOUT WARRANTIES OR CONDITIONS OF ANY KIND, either express or implied.
  -    See the License for the specific language governing permissions and
  -    limitations under the License.
  -
  - Redistribution and use in source and binary forms, with or without
  - modification, are permitted provided that the following conditions are met:
  - Redistributions of source code must retain the above copyright notice,
  - this list of conditions and the following disclaimer.
  - Redistributions in binary form must reproduce the above copyright
  - notice, this list of conditions and the following disclaimer in the
  - documentation and/or other materials provided with the distribution.
  - Neither the name of the developer nor the names of its
  - contributors may be used to endorse or promote products derived from
  - this software without specific prior written permission.
  - 重新分发和使用源代码和二进制形式的代码，无论是否进行修改，都是允许的，只要满足以下条件：
  - 重新分发源代码时，必须保留上述版权通知、本条件列表以及以下免责声明。
  - 以二进制形式重新分发时，必须在分发时提供的文档或其他材料中复制上述版权通知、本条件列表以及以下免责声明。
  - 未经事先书面许可，不得使用开发者或贡献者的名称来认可或推广从本软件派生出来的产品。
  -
  - Disclaimer
  - This software is provided "as is" without any express or implied warranty,
  - including but not limited to the warranties of merchantability,
  - fitness for a particular purpose, and non-infringement.
  - The risk of using this software lies with the user. The developers or contributors shall not be liable for any direct,
  - indirect, incidental, special, exemplary, or consequential damages resulting from the use of this software.
  - To the maximum extent permitted by law, the developers or contributors shall not be responsible for any claims,
  - losses, liabilities, damages, costs, or expenses arising from the use or inability to use this software.
  - 免责声明
  - 本软件按“现状”提供，不附带任何形式的明示或暗示保证，包括但不限于对适销性、特定用途的适用性或非侵权性的保证。
  - 使用本软件的风险由用户自行承担。开发者或贡献者不对因使用本软件而导致的任何直接、间接、偶然、特殊、惩戒性或后果性损害承担任何责任。
  - 在法律允许的最大范围内，开发者或贡献者对于因使用或无法使用本软件而产生的任何索赔、损失、责任、损害、成本或费用均不承担责任。
  -->

<svg width="24px" height="24px" viewBox="0 0 24 24" version="1.1" xmlns="http://www.w3.org/2000/svg" xmlns:xlink="http://www.w3.org/1999/xlink">
    <title>Public/ic_public_single_cycle</title>
    <defs>
        <path d="M21.9636975,9.07316179 C22.6347148,10.0426417 23,11.1928687 23,12.395892 C23,15.6294533 20.3712195,18.25 17.1298548,18.25 L7.5,18.2491068 L7.5,19.5428932 C7.5,19.8190356 7.27614237,20.0428932 7,20.0428932 C6.86739176,20.0428932 6.7402148,19.9902148 6.64644661,19.8964466 L4.35355339,17.6035534 C4.15829124,17.4082912 4.15829124,17.0917088 4.35355339,16.8964466 C4.44732158,16.8026784 4.57449854,16.75 4.70710678,16.75 L17.1298548,16.75 C19.543844,16.75 21.5,14.799971 21.5,12.395892 C21.5,11.5004607 21.2291251,10.647517 20.7303133,9.92683821 C20.4945771,9.58624857 20.5795776,9.11904413 20.9201672,8.8833079 C21.2607569,8.64757167 21.7279613,8.73257215 21.9636975,9.07316179 Z M17,3.95710678 C17.1326082,3.95710678 17.2597852,4.0097852 17.3535534,4.10355339 L19.6464466,6.39644661 C19.8417088,6.59170876 19.8417088,6.90829124 19.6464466,7.10355339 C19.5526784,7.19732158 19.4255015,7.25 19.2928932,7.25 L6.86980673,7.25 C4.45597959,7.25 2.5,9.20005364 2.5,11.6043794 C2.5,12.4996507 2.77091552,13.3525314 3.26981691,14.073043 C3.50561877,14.4135872 3.42070833,14.880808 3.08016412,15.1166098 C2.73961992,15.3524117 2.27239911,15.2675013 2.03659725,14.926957 C1.36537709,13.9575833 1,12.8073242 1,11.6043794 C1,8.37060595 3.62856962,5.75 6.86980673,5.75 L16.5,5.74910678 L16.5,4.45710678 C16.5,4.18096441 16.7238576,3.95710678 17,3.95710678 Z M12.875,9 L12.875,15 L11.5991993,15 L11.599,10.67725 L10.375,11.3806142 L10.375,9.98613824 L11.9703403,9 L12.875,9 Z" id="path-1"></path>
    </defs>
    <g id="Public/ic_public_single_cycle" stroke="none" stroke-width="1" fill="none" fill-rule="evenodd">
        <mask id="mask-2" fill="white">
            <use xlink:href="#path-1"></use>
        </mask>
        <use id="形状结合" fill="#000000" fill-rule="nonzero" xlink:href="#path-1"></use>
    </g>
</svg>