<?xml version="1.0" encoding="UTF-8"?>

<!--
  - Copyright (c) 2024 StarHidden
  -
  -    Licensed under the Apache License, Version 2.0 (the "License");
  -    you may not use this file except in compliance with the License.
  -    You may obtain a copy of the License at
  -
  -        http://www.apache.org/licenses/LICENSE-2.0
  -
  -    Unless required by applicable law or agreed to in writing, software
  -    distributed under the License is distributed on an "AS IS" BASIS,
  -    WITHOUT WARRANTIES OR CONDITIONS OF ANY KIND, either express or implied.
  -    See the License for the specific language governing permissions and
  -    limitations under the License.
  -
  - Redistribution and use in source and binary forms, with or without
  - modification, are permitted provided that the following conditions are met:
  - Redistributions of source code must retain the above copyright notice,
  - this list of conditions and the following disclaimer.
  - Redistributions in binary form must reproduce the above copyright
  - notice, this list of conditions and the following disclaimer in the
  - documentation and/or other materials provided with the distribution.
  - Neither the name of the developer nor the names of its
  - contributors may be used to endorse or promote products derived from
  - this software without specific prior written permission.
  - 重新分发和使用源代码和二进制形式的代码，无论是否进行修改，都是允许的，只要满足以下条件：
  - 重新分发源代码时，必须保留上述版权通知、本条件列表以及以下免责声明。
  - 以二进制形式重新分发时，必须在分发时提供的文档或其他材料中复制上述版权通知、本条件列表以及以下免责声明。
  - 未经事先书面许可，不得使用开发者或贡献者的名称来认可或推广从本软件派生出来的产品。
  -
  - Disclaimer
  - This software is provided "as is" without any express or implied warranty,
  - including but not limited to the warranties of merchantability,
  - fitness for a particular purpose, and non-infringement.
  - The risk of using this software lies with the user. The developers or contributors shall not be liable for any direct,
  - indirect, incidental, special, exemplary, or consequential damages resulting from the use of this software.
  - To the maximum extent permitted by law, the developers or contributors shall not be responsible for any claims,
  - losses, liabilities, damages, costs, or expenses arising from the use or inability to use this software.
  - 免责声明
  - 本软件按“现状”提供，不附带任何形式的明示或暗示保证，包括但不限于对适销性、特定用途的适用性或非侵权性的保证。
  - 使用本软件的风险由用户自行承担。开发者或贡献者不对因使用本软件而导致的任何直接、间接、偶然、特殊、惩戒性或后果性损害承担任何责任。
  - 在法律允许的最大范围内，开发者或贡献者对于因使用或无法使用本软件而产生的任何索赔、损失、责任、损害、成本或费用均不承担责任。
  -->

<svg xmlns="http://www.w3.org/2000/svg" xmlns:xlink="http://www.w3.org/1999/xlink" width="24" height="24" viewBox="0 0 24 24" version="1.1">
    <title>Public/ic_public_music_public_filled</title>
    <defs>
        <path d="M20.4655632,3.98094804 C20.4803936,4.07517784 20.4903061,4.17008347 20.4952705,4.26527934 L20.4990023,4.40824262 L20.5,15.249908 L20.498902,15.2620554 L20.498902,15.2620554 C20.4931586,16.2880671 20.4856874,16.7633475 20.2674612,17.5724186 C20.049235,18.3814897 19.6218054,19.1432745 18.7702139,19.6340818 C17.2204638,20.5272666 15.3424257,20.1763717 14.5754983,18.8503361 C13.8085709,17.5243005 14.4431741,15.7252669 15.9929242,14.8320821 C16.6295315,14.465179 17.4389386,14.1407327 17.998814,13.6282537 C18.334865,13.3206511 18.498814,12.8782537 18.498814,11.8782537 L18.499186,11.8570969 L18.498186,6.76409685 L8.49918603,8.52809685 L8.49936922,16.5464126 C8.49972336,16.5891392 8.5000223,16.6319679 8.50026898,16.6748653 L8.50102054,17.1481598 L8.50008805,17.3838017 C8.49434461,18.4098134 8.48687341,18.8850938 8.26864723,19.6941649 C8.05042106,20.503236 7.62299148,21.2650208 6.77139997,21.7558281 C5.22164988,22.6490129 3.34361172,22.2981181 2.57668432,20.9720825 C1.80975692,19.6460469 2.4443601,17.8470132 3.99411018,16.9538284 C4.63071753,16.5869253 5.44012462,16.2624791 6,15.75 C6.33605107,15.4423974 6.5,15 6.5,14 L6.5,5.74611652 C6.5,4.45125417 7.4013868,3.34060819 8.6500759,3.06228843 L8.82245235,3.02955564 L17.3214547,1.69193481 C18.8217698,1.45580676 20.2294352,2.4806329 20.4655632,3.98094804 Z" id="___path-1"/>
    </defs>
    <g id="___Public/ic_public_music_public_filled" stroke="none" stroke-width="1" fill="none" fill-rule="evenodd">
        <mask id="___mask-2" fill="white">
            <use xlink:href="#___path-1"/>
        </mask>
        <use id="___形状结合" fill="#000000" xlink:href="#___path-1"/>
    </g>
</svg>